<svg width="192" height="192" viewBox="0 0 192 192" fill="none" xmlns="http://www.w3.org/2000/svg">
  <!-- 背景圓形 -->
  <circle cx="96" cy="96" r="96" fill="#2563eb"/>
  <circle cx="96" cy="96" r="88" fill="#3b82f6"/>
  
  <!-- 十字架 -->
  <rect x="88" y="40" width="16" height="80" rx="8" fill="white"/>
  <rect x="64" y="72" width="64" height="16" rx="8" fill="white"/>
  
  <!-- 光芒效果 -->
  <circle cx="96" cy="96" r="72" fill="none" stroke="rgba(255,255,255,0.2)" stroke-width="2"/>
  <circle cx="96" cy="96" r="60" fill="none" stroke="rgba(255,255,255,0.1)" stroke-width="1"/>
  
  <!-- 信封圖標 -->
  <rect x="48" y="120" width="96" height="64" rx="8" fill="white" fill-opacity="0.9"/>
  <rect x="52" y="124" width="88" height="56" rx="4" fill="#f8fafc"/>
  
  <!-- 信封線條 -->
  <path d="M52 124 L96 148 L140 124" stroke="#2563eb" stroke-width="2" fill="none"/>
  <line x1="60" y1="140" x2="100" y2="140" stroke="#94a3b8" stroke-width="2"/>
  <line x1="60" y1="150" x2="132" y2="150" stroke="#94a3b8" stroke-width="2"/>
  <line x1="60" y1="160" x2="120" y2="160" stroke="#94a3b8" stroke-width="2"/>
  
  <!-- 愛心裝飾 -->
  <path d="M96 60 C92 56, 84 56, 84 64 C84 56, 76 56, 72 60 C72 68, 84 80, 96 88 C108 80, 120 68, 120 60 C116 56, 108 56, 108 64 C108 56, 100 56, 96 60 Z" fill="rgba(255,255,255,0.8)"/>
</svg>