<svg width="512" height="512" viewBox="0 0 512 512" fill="none" xmlns="http://www.w3.org/2000/svg">
  <!-- 背景漸變 -->
  <defs>
    <radialGradient id="bgGradient" cx="50%" cy="30%" r="70%">
      <stop offset="0%" style="stop-color:#3b82f6;stop-opacity:1" />
      <stop offset="100%" style="stop-color:#1e40af;stop-opacity:1" />
    </radialGradient>
    <linearGradient id="crossGradient" x1="0%" y1="0%" x2="100%" y2="100%">
      <stop offset="0%" style="stop-color:#ffffff;stop-opacity:1" />
      <stop offset="100%" style="stop-color:#f1f5f9;stop-opacity:1" />
    </linearGradient>
  </defs>
  
  <!-- 主背景 -->
  <circle cx="256" cy="256" r="256" fill="url(#bgGradient)"/>
  
  <!-- 光暈效果 -->
  <circle cx="256" cy="256" r="220" fill="none" stroke="rgba(255,255,255,0.1)" stroke-width="3"/>
  <circle cx="256" cy="256" r="190" fill="none" stroke="rgba(255,255,255,0.05)" stroke-width="2"/>
  
  <!-- 十字架主體 -->
  <rect x="232" y="100" width="48" height="240" rx="24" fill="url(#crossGradient)"/>
  <rect x="160" y="180" width="192" height="48" rx="24" fill="url(#crossGradient)"/>
  
  <!-- 十字架陰影 -->
  <rect x="236" y="104" width="44" height="236" rx="22" fill="rgba(0,0,0,0.1)"/>
  <rect x="164" y="184" width="188" height="44" rx="22" fill="rgba(0,0,0,0.1)"/>
  
  <!-- 信封背景 -->
  <rect x="120" y="320" width="272" height="160" rx="20" fill="white" fill-opacity="0.95"/>
  <rect x="128" y="328" width="256" height="144" rx="16" fill="#f8fafc"/>
  
  <!-- 信封邊框 -->
  <rect x="120" y="320" width="272" height="160" rx="20" fill="none" stroke="rgba(37,99,235,0.2)" stroke-width="2"/>
  
  <!-- 信封折疊線 -->
  <path d="M128 328 L256 400 L384 328" stroke="#2563eb" stroke-width="4" fill="none" stroke-linecap="round"/>
  
  <!-- 信件內容線條 -->
  <line x1="160" y1="360" x2="280" y2="360" stroke="#94a3b8" stroke-width="3" stroke-linecap="round"/>
  <line x1="160" y1="380" x2="352" y2="380" stroke="#94a3b8" stroke-width="3" stroke-linecap="round"/>
  <line x1="160" y1="400" x2="320" y2="400" stroke="#94a3b8" stroke-width="3" stroke-linecap="round"/>
  <line x1="160" y1="420" x2="300" y2="420" stroke="#94a3b8" stroke-width="3" stroke-linecap="round"/>
  <line x1="160" y1="440" x2="280" y2="440" stroke="#94a3b8" stroke-width="3" stroke-linecap="round"/>
  
  <!-- 愛心裝飾 -->
  <path d="M256 140 C244 124, 220 124, 220 148 C220 124, 196 124, 184 140 C184 164, 220 200, 256 220 C292 200, 328 164, 328 140 C316 124, 292 124, 292 148 C292 124, 268 124, 256 140 Z" fill="rgba(255,255,255,0.9)"/>
  
  <!-- 光芒效果 -->
  <g opacity="0.6">
    <path d="M256 80 L260 120 L256 160 L252 120 Z" fill="rgba(255,255,255,0.8)"/>
    <path d="M176 256 L216 252 L256 256 L216 260 Z" fill="rgba(255,255,255,0.8)"/>
    <path d="M336 256 L296 260 L256 256 L296 252 Z" fill="rgba(255,255,255,0.8)"/>
    <path d="M200 180 L230 210 L200 240 L170 210 Z" fill="rgba(255,255,255,0.6)" transform="rotate(45 200 210)"/>
    <path d="M312 180 L342 210 L312 240 L282 210 Z" fill="rgba(255,255,255,0.6)" transform="rotate(-45 312 210)"/>
  </g>
</svg>